<mxfile host="app.diagrams.net" modified="2024-07-27T13:29:11.751Z" agent="Mozilla/5.0 (Windows NT 10.0; Win64; x64) AppleWebKit/537.36 (KHTML, like Gecko) Chrome/127.0.0.0 Safari/537.36" version="24.3.1" etag="VgN_VodXqhwB2IrtV0El" type="github">
  <diagram name="第 1 页" id="_rjS7--pJ7B--WQdgWAr">
    <mxGraphModel>
      <root>
        <mxCell id="0" />
        <mxCell id="1" parent="0" />
      </root>
    </mxGraphModel>
  </diagram>
</mxfile>
